<?xml version="1.0" standalone="no"?>
<!DOCTYPE svg PUBLIC "-//W3C//DTD SVG 20010904//EN"
 "http://www.w3.org/TR/2001/REC-SVG-20010904/DTD/svg10.dtd">
<svg version="1.0" xmlns="http://www.w3.org/2000/svg"
 width="1024.000000pt" height="1024.000000pt" viewBox="0 0 1024.000000 1024.000000"
 preserveAspectRatio="xMidYMid meet">

<g transform="translate(0.000000,1024.000000) scale(0.100000,-0.100000)"
fill="#000000" stroke="none">
<path d="M3207 7610 c-127 -22 -241 -120 -277 -237 -20 -65 -20 -84 -20 -2382
0 -1585 3 -2328 11 -2354 22 -79 114 -147 200 -147 87 1 117 24 419 326 157
156 288 284 291 284 2 0 126 -122 274 -271 149 -149 284 -277 302 -285 42 -18
107 -18 143 1 16 8 151 138 299 288 l270 272 278 -277 c153 -152 291 -282 306
-288 39 -14 91 -13 130 3 19 8 142 127 296 285 146 150 269 272 273 272 5 0
136 -128 291 -284 155 -156 297 -292 316 -301 18 -9 57 -19 85 -22 65 -7 142
24 186 73 64 74 60 -93 60 2429 0 2545 5 2358 -68 2464 -40 59 -91 101 -162
135 l-45 21 -1905 2 c-1048 0 -1927 -3 -1953 -7z m3835 -269 l33 -29 3 -2269
2 -2268 -287 287 c-159 157 -302 293 -320 302 -37 18 -90 21 -130 5 -15 -6
-152 -134 -304 -285 l-276 -275 -277 273 c-153 150 -290 278 -304 285 -36 16
-86 16 -126 -1 -21 -9 -141 -122 -305 -287 l-270 -274 -273 274 c-156 157
-286 280 -305 287 -45 19 -90 17 -138 -6 -26 -12 -141 -121 -319 -300 -154
-154 -281 -278 -284 -276 -8 9 -7 4470 1 4500 5 16 22 42 39 58 l30 28 1889 0
1889 0 32 -29z"/>
<path d="M3653 6840 c-53 -21 -76 -128 -41 -182 39 -59 20 -58 792 -58 753 0
746 0 790 48 26 30 32 101 12 140 -33 65 -1 62 -803 61 -400 0 -738 -4 -750
-9z"/>
<path d="M3638 6247 c-49 -41 -62 -101 -34 -156 33 -64 3 -61 690 -61 463 0
632 3 651 12 15 7 33 24 41 39 19 37 18 109 -2 137 -37 53 -24 52 -696 52
l-623 0 -27 -23z"/>
<path d="M5902 6120 c-18 -11 -37 -32 -42 -46 -6 -16 -10 -366 -10 -930 l0
-904 -90 0 -90 0 0 654 c0 359 -2 660 -6 669 -3 9 -18 24 -32 34 -24 16 -50
18 -204 18 l-178 0 -32 -33 -33 -32 -3 -655 -2 -655 -90 0 -90 0 0 444 c0 245
-4 455 -9 469 -20 51 -54 62 -211 65 -89 3 -158 0 -182 -7 -72 -22 -70 -7 -70
-516 l0 -455 -36 -2 c-21 -1 -59 -1 -87 -2 l-50 0 -5 205 c-7 276 -9 279 -183
279 -121 0 -166 -14 -186 -56 -7 -17 -11 -116 -11 -302 0 -240 2 -281 16 -301
37 -53 0 -51 1171 -51 1061 0 1089 1 1120 20 67 40 63 -22 63 1053 0 973 0
974 -21 1001 -39 50 -65 56 -231 56 -135 0 -157 -2 -186 -20z"/>
</g>
</svg>
